<?xml version="1.0" encoding="utf-8"?>
<!-- Generator: Adobe Illustrator 19.2.1, SVG Export Plug-In . SVG Version: 6.00 Build 0)  -->
<svg version="1.1" id="t1481037760349" xmlns:svgjs="http://svgjs.com/svgjs"
	 xmlns="http://www.w3.org/2000/svg" xmlns:xlink="http://www.w3.org/1999/xlink" x="0px" y="0px" viewBox="0 0 360 275"
	 style="enable-background:new 0 0 360 275;" xml:space="preserve">
<style type="text/css">
	.st0{fill:#3C3C3C;stroke:#3C3C3C;}
	.st1{fill:#3C3C3C;}
</style>
<g id="SvgjsG1026" transform="matrix(1,0,0,1,0,81.84193420410156)">
	<g id="SvgjsUse1025">
		<path class="st0" d="M198.6,29.5c-0.2-2.7-0.9-8.1-1.8-10.7c-1.9-5.7-7.6-15.3-16.8-15.3c-9.2,0-14.9,9.6-16.8,15.3
			c-0.9,2.6-1.6,8-1.8,10.7c-0.2,4.1,1.3,8.1,4.3,11.3c3.4,3.6,8.1,5.6,13,5.6h2.5c4.9,0,9.6-2,13-5.6
			C197.3,37.7,198.8,33.7,198.6,29.5z M192.8,39.4c-2.9,3.1-7.2,5-11.5,5h-2.5c-4.3,0-8.6-1.9-11.5-5c-2.6-2.8-3.9-6.2-3.7-9.8
			c0.2-2.7,0.8-7.8,1.6-10.2c1.6-4.8,6.8-13.9,14.9-13.9c8.1,0,13.2,9.1,14.9,13.9c0.8,2.4,1.5,7.5,1.6,10.2
			C196.7,33.2,195.4,36.7,192.8,39.4z"/>
		<path class="st0" d="M185.6,16.3c-2.1,0-4,0.7-5.6,2c-1.6-1.3-3.5-2-5.6-2c-4.9,0-8.9,4-8.9,8.9c0,3.3,1.7,6.2,4.5,7.7
			c-0.3,0.7-0.4,1.3-0.4,2c0,3.9,4.6,7,10.4,7s10.4-3.1,10.4-7c0-0.7-0.1-1.4-0.4-2c2.8-1.6,4.5-4.5,4.5-7.7
			C194.5,20.3,190.5,16.3,185.6,16.3z M188.1,31.5l-1.2,0.5l0.8,1.1c0.4,0.6,0.7,1.2,0.7,1.9c0,2.7-3.8,4.9-8.3,4.9
			c-4.5,0-8.3-2.2-8.3-4.9c0-0.6,0.2-1.3,0.7-1.9l0.8-1.1l-1.2-0.5c-2.6-1-4.3-3.5-4.3-6.3c0-3.8,3.1-6.8,6.8-6.8
			c1.8,0,3.5,0.7,4.8,2l0.7,0.7l0.7-0.7c1.3-1.3,3-2,4.8-2c3.8,0,6.8,3.1,6.8,6.8C192.4,28,190.7,30.5,188.1,31.5z"/>
		<circle class="st0" cx="173.8" cy="24.3" r="1.9"/>
		<circle class="st0" cx="186.2" cy="24.3" r="1.9"/>
		<rect x="177.1" y="29.9" class="st0" width="2.1" height="2.8"/>
		<rect x="180.8" y="29.9" class="st0" width="2.1" height="2.8"/>
	</g>
	<g id="SvgjsUse1024">
		<path class="st1" d="M131.7,70.7c7.3,0,13.8,3.5,17,10.3v-9.6h3.7V113h-3.7v-9.5c-3.2,6.7-9.7,10.3-17,10.3c-9.4,0-21-7.3-21-21.5
			C110.7,78,122.4,70.7,131.7,70.7z M132,74.1c-7.8,0-17.6,5.9-17.6,18.2c0,12.2,9.8,18.2,17.6,18.2c8.1,0,16.9-5.8,16.9-18.2
			C148.8,79.8,140,74.1,132,74.1z M181.4,70.7c9.4,0,21,7.3,21,21.6c0,14.2-11.7,21.5-21,21.5c-7.3,0-13.8-3.6-17-10.3v9.5h-3.7
			V83.2h-0.1V56.5h3.7v15h0.1V81C167.6,74.2,174.1,70.7,181.4,70.7z M181.1,110.5c7.8,0,17.6-5.9,17.6-18.2
			c0-12.3-9.8-18.2-17.6-18.2c-8.1,0-16.9,5.8-16.9,18.2C164.2,104.7,173,110.5,181.1,110.5z M227.6,70.7c9.4,0,21.7,7.3,20.6,23
			h-37.8c0.7,11.3,9.5,16.7,18.2,16.7c6,0,10.6-1.8,13.8-5.7l2.4,2.1c-3.8,4.9-9.4,7-16.2,7c-10.8,0-21.9-7.3-21.9-21.6
			C206.6,78,218.2,70.7,227.6,70.7z M227.6,74.1c-7.4,0-16.5,5.4-17.3,16.6h34.4C244.4,79.5,235,74.1,227.6,74.1z"/>
	</g>
</g>
</svg>
