<svg id="SvgjsSvg1033" width="360" height="275" xmlns="http://www.w3.org/2000/svg" version="1.1" xmlns:xlink="http://www.w3.org/1999/xlink" xmlns:svgjs="http://svgjs.com/svgjs"><defs id="SvgjsDefs1034"><svg width="50px" height="50px" xmlns="http://www.w3.org/2000/svg" xmlns:xlink="http://www.w3.org/1999/xlink" version="1.1" x="0px" y="0px" viewBox="0 0 144.083 144" enable-background="new 0 0 144.083 144" id="a1481037760460"><path d="M125.599,85.055c-0.443-7.819-2.495-23.325-5.046-30.905c-5.501-16.358-21.908-44.042-48.512-44.042  c-26.6,0-43.01,27.684-48.512,44.042c-2.553,7.587-4.604,23.09-5.045,30.906c-0.67,11.877,3.732,23.466,12.396,32.633  c9.733,10.298,23.398,16.204,37.492,16.204h7.34c14.092,0,27.757-5.906,37.49-16.204C121.866,108.521,126.269,96.933,125.599,85.055  z M108.841,113.567c-8.479,8.97-20.863,14.325-33.13,14.325h-7.34c-12.267,0-24.653-5.355-33.131-14.326  c-7.519-7.955-11.342-17.96-10.766-28.173c0.433-7.647,2.446-22.506,4.742-29.332c4.649-13.819,19.582-39.954,42.826-39.954  c23.248,0,38.178,26.135,42.825,39.955c2.295,6.819,4.31,21.68,4.743,29.331C120.185,95.606,116.361,105.612,108.841,113.567z"></path><path d="M88.096,46.885c-5.913,0-11.517,1.989-16.055,5.653c-4.538-3.664-10.142-5.653-16.056-5.653  c-14.133,0-25.631,11.498-25.631,25.631c0,9.396,5.031,17.835,13.065,22.33c-0.832,1.885-1.262,3.86-1.262,5.84  c0,11.27,13.126,20.097,29.884,20.097s29.883-8.827,29.883-20.097c0-1.98-0.431-3.956-1.262-5.84  c8.034-4.495,13.064-12.935,13.064-22.33C113.727,58.383,102.229,46.885,88.096,46.885z M95.348,90.745l-3.585,1.427l2.267,3.123  c1.257,1.731,1.895,3.545,1.895,5.391c0,7.642-10.938,14.097-23.883,14.097c-12.946,0-23.884-6.455-23.884-14.097  c0-1.845,0.638-3.658,1.896-5.391l2.267-3.123l-3.584-1.427c-7.521-2.994-12.38-10.15-12.38-18.229  c0-10.824,8.806-19.631,19.631-19.631c5.266,0,10.212,2.061,13.927,5.802l2.129,2.145l2.129-2.145  c3.715-3.741,8.66-5.802,13.926-5.802c10.824,0,19.631,8.807,19.631,19.631C107.727,80.595,102.868,87.751,95.348,90.745z"></path><circle cx="54.04" cy="70.101" r="5.375"></circle><circle cx="90.042" cy="70.101" r="5.375"></circle><rect x="63.802" y="86.253" width="6" height="8.089"></rect><rect x="74.28" y="86.253" width="6" height="8.089"></rect></svg><!--?xml version="1.0"?-->
<svg width="191.7808px" height="146px" id="t1481037760460"><path fill="#ffffff" d="M23.84,53.68c7.28,0,13.76,3.52,16.96,10.32l0-9.6l3.68,0l0,41.6l-3.68,0l0-9.52c-3.2,6.72-9.68,10.32-16.96,10.32c-9.36,0-21.04-7.28-21.04-21.52c0-14.32,11.68-21.6,21.04-21.6z M24.08,57.04c-7.76,0-17.6,5.92-17.6,18.24c0,12.24,9.84,18.16,17.6,18.16c8.08,0,16.88-5.76,16.88-18.16c0-12.48-8.8-18.24-16.88-18.24z M73.4736,53.68c9.36,0,21.04,7.28,21.04,21.6c0,14.24-11.68,21.52-21.04,21.52c-7.28,0-13.76-3.6-16.96-10.32l0,9.52l-3.68,0l0-29.84l-0.08,0l0-26.72l3.68,0l0,14.96l0.08,0l0,9.6c3.2-6.8,9.68-10.32,16.96-10.32z M73.2336,93.44c7.76,0,17.6-5.92,17.6-18.16c0-12.32-9.84-18.24-17.6-18.24c-8.08,0-16.88,5.76-16.88,18.24c0,12.4,8.8,18.16,16.88,18.16z M119.7472,53.68c9.44,0,21.68,7.28,20.56,23.04l-37.84,0c0.72,11.28,9.52,16.72,18.16,16.72c6,0,10.64-1.76,13.84-5.68l2.4,2.08c-3.84,4.88-9.44,6.96-16.24,6.96c-10.8,0-21.92-7.28-21.92-21.6c0-14.24,11.6-21.52,21.04-21.52z M119.7472,57.04c-7.36,0-16.48,5.44-17.28,16.56l34.4,0c-0.32-11.12-9.76-16.56-17.12-16.56z"></path></svg>
</defs><g id="SvgjsG1037" transform="matrix(1,0,0,1,0,81.84193420410156)"><use id="SvgjsUse1036" xlink:href="#a1481037760460" fill="#ffffff" stroke="#ffffff" x="155" y="0"></use><use id="SvgjsUse1035" xlink:href="#t1481037760460" fill="#ffffff" x="107.88640213012695" y="17.03823757171631"></use></g></svg>